<svg xmlns="http://www.w3.org/2000/svg" viewBox="0 0 45 45"><g fill="#1c1c1c" stroke="#000000" stroke-width="1.5" stroke-linecap="round" stroke-linejoin="round"><path d="M12.9 40.4h19.2a1.6 1.6 0 0 0 1.5-2.2l-1.1-2.7a2 2 0 0 0-1.3-1.2l-3.3999999999999995 -.6h-12.4l-3.3999999999999995 .6a2 2 0 0 0-1.3 1.2l-1.1 2.7a1.6 1.6 0 0 0 1.5 2.2z"/><path d="M16.2 31.4V20.6h12.6v10.8z"/><path d="M16.2 25.6h12.6" stroke="#ffffff" stroke-width=".8" fill="none"/><path d="M17.3 11.4V4.800000000000001h3.5v6.6z"/><path d="M24.2 11.4V4.800000000000001h3.5v6.6z"/><circle cx="22.5" cy="15.4" r="5"/><circle cx="20.1" cy="14.8" r="0.8999999999999999" fill="#ffffff" stroke="none"/><circle cx="24.9" cy="14.8" r="0.8999999999999999" fill="#ffffff" stroke="none"/><path d="M21.45 17.2h2.1l-1.05 1.25z" fill="#b8626c" stroke="#ffffff" stroke-width=".45" stroke-linejoin="round"/><path d="M22.5 18.45v.9" stroke="#ffffff" stroke-width=".55" fill="none"/><path d="M17.1 16.9h2M17.3 18.2l1.8-.5M27.9 16.9h-2M27.7 18.2l-1.8-.5" stroke="#ffffff" stroke-width=".5" stroke-linecap="round" fill="none"/><path d="M17.3 10.6h10.4v2.2H17.3z"/></g></svg>